<svg id="SvgjsSvg1001" width="288" height="288" xmlns="http://www.w3.org/2000/svg" version="1.1" xmlns:xlink="http://www.w3.org/1999/xlink" xmlns:svgjs="http://svgjs.com/svgjs"><defs id="SvgjsDefs1002"></defs><g id="SvgjsG1008" transform="matrix(1,0,0,1,0,0)"><svg xmlns="http://www.w3.org/2000/svg" data-name="Layer 1" viewBox="0 0 29 29" width="288" height="288"><path d="M14.5,1.4209a13.01474,13.01474,0,0,0-13,13,13.02219,13.02219,0,0,0,13,13,13,13,0,0,0,0-26ZM7,16.5a2,2,0,1,1,2-2A2,2,0,0,1,7,16.5Zm7.5,0a2,2,0,1,1,2-2A2,2,0,0,1,14.5,16.5Zm7.5,0a2,2,0,1,1,2-2A2,2,0,0,1,22,16.5Z" fill="#5222d0" class="color000 svgShape"></path></svg></g></svg>